<?xml version="1.0" encoding="utf-8"?>
<!-- Generator: Adobe Illustrator 27.4.1, SVG Export Plug-In . SVG Version: 6.00 Build 0)  -->
<svg version="1.1" id="Layer_1" xmlns="http://www.w3.org/2000/svg" xmlns:xlink="http://www.w3.org/1999/xlink" x="0px" y="0px"
	 viewBox="0 0 60 50" style="enable-background:new 0 0 60 50;" xml:space="preserve">
<style type="text/css">
	.st0{fill:#A63C9F;stroke:#A63C9F;stroke-miterlimit:10;}
</style>
<path class="st0" d="M51.6,12.5H21.1V9.2c0-0.9-0.8-1.8-1.8-1.8h-8.5c-0.9,0-1.8,0.8-1.8,1.8v3.3c-2,0.2-3.6,1.9-3.6,3.9v24.1
	c0,2.2,1.8,3.9,3.9,3.9h42.1c2.2,0,3.9-1.8,3.9-3.9V16.4C55.5,14.3,53.8,12.5,51.6,12.5z M9.8,9.2c0-0.6,0.4-0.9,0.9-0.9h8.5
	c0.6,0,0.9,0.4,0.9,0.9v3.3H9.8V9.2z M9.5,13.3h11.3h30.9c1.8,0,3.2,1.4,3.2,3.2v12H40.9c-0.2-5.5-4.7-9.9-10.3-9.9
	S20.5,23,20.3,28.5H6.3V16.4C6.3,14.7,7.7,13.3,9.5,13.3z M40.1,28.8c0,5.3-4.3,9.5-9.5,9.5s-9.5-4.3-9.5-9.5s4.3-9.5,9.5-9.5
	S40.1,23.6,40.1,28.8z M51.6,43.7H9.5c-1.8,0-3.2-1.4-3.2-3.2V29.3h14.1c0.2,5.5,4.7,9.9,10.3,9.9s10.1-4.4,10.3-9.9h13.9v11.3
	C54.8,42.3,53.3,43.7,51.6,43.7z M30.6,24.1c-2.6,0-4.8,2.1-4.8,4.8c0,2.6,2.1,4.8,4.8,4.8s4.8-2.1,4.8-4.8S33.2,24.1,30.6,24.1z
	 M30.6,32.9c-2.3,0-4.1-1.8-4.1-4.1s1.8-4.1,4.1-4.1s4.1,1.8,4.1,4.1S32.9,32.9,30.6,32.9z M44.7,18.7c-0.1-0.1-0.1-0.2-0.1-0.3
	c0-0.1,0.1-0.2,0.1-0.3c0.1-0.1,0.4-0.1,0.6,0c0.1,0.1,0.1,0.2,0.1,0.3c0,0.1-0.1,0.2-0.1,0.3c-0.1,0.1-0.2,0.1-0.3,0.1
	C45,18.9,44.8,18.8,44.7,18.7z M49.4,18.7c-0.1-0.1-0.1-0.2-0.1-0.3c0-0.1,0.1-0.2,0.1-0.3c0.1-0.1,0.4-0.1,0.6,0
	c0.1,0.1,0.1,0.2,0.1,0.3c0,0.1-0.1,0.2-0.1,0.3c-0.1,0.1-0.2,0.1-0.3,0.1S49.4,18.8,49.4,18.7z"/>
</svg>
