<?xml version="1.0" encoding="utf-8"?>
<!-- Generator: Adobe Illustrator 27.4.1, SVG Export Plug-In . SVG Version: 6.00 Build 0)  -->
<svg version="1.1" id="Layer_1" xmlns="http://www.w3.org/2000/svg" xmlns:xlink="http://www.w3.org/1999/xlink" x="0px" y="0px"
	 viewBox="0 0 50 50" style="enable-background:new 0 0 50 50;" xml:space="preserve">
<style type="text/css">
	.st0{fill:#FFFFFF;}
</style>
<path class="st0" d="M25,2C12.3,2,2,12.3,2,25s10.3,23,23,23s23-10.3,23-23S37.7,2,25,2z M25,4c11.6,0,21,9.4,21,21s-9.4,21-21,21
	S4,36.6,4,25S13.4,4,25,4z M16,12c-1.6,0-3,1.4-3,3s1.4,3,3,3s3-1.4,3-3S17.6,12,16,12z M16,14c0.6,0,1,0.4,1,1s-0.4,1-1,1
	s-1-0.4-1-1S15.4,14,16,14z M14,19c-0.6,0-1,0.4-1,1v15c0,0.6,0.4,1,1,1h4c0.6,0,1-0.4,1-1V20c0-0.6-0.4-1-1-1H14z M22,19
	c-0.6,0-1,0.4-1,1v15c0,0.6,0.4,1,1,1h4c0.6,0,1-0.4,1-1v-7.5c0-1.4,1.1-2.5,2.5-2.5s2.5,1.1,2.5,2.5V30v5c0,0.6,0.4,1,1,1h4
	c0.6,0,1-0.4,1-1v-8.5c0-4.1-3.4-7.5-7.5-7.5c-1.3,0-2.4,0.4-3.5,1c0-0.5-0.5-1-1-1H22z M15,21h2v13h-2V21z M23,21h2v0.8
	c0,0.6,0.4,1,1,1c0.3,0,0.5-0.1,0.7-0.3c1-1,2.3-1.5,3.8-1.5c3,0,5.5,2.5,5.5,5.5V34h-2v-4v-2.5c0-2.5-2-4.5-4.5-4.5S25,25,25,27.5
	V34h-2V21z"/>
</svg>
