<?xml version="1.0" encoding="utf-8"?>
<!-- Generator: Adobe Illustrator 27.4.1, SVG Export Plug-In . SVG Version: 6.00 Build 0)  -->
<svg version="1.1" id="Capa_1" xmlns="http://www.w3.org/2000/svg" xmlns:xlink="http://www.w3.org/1999/xlink" x="0px" y="0px"
	 viewBox="0 0 50 50" style="enable-background:new 0 0 50 50;" xml:space="preserve">
<style type="text/css">
	.st0{fill:#FFFFFF;stroke:#FFFFFF;stroke-miterlimit:10;}
</style>
<g>
	<g>
		<g id="circle_4_">
			<g>
				<path class="st0" d="M25,2C12.3,2,2,12.3,2,25s10.3,23,23,23s23-10.3,23-23S37.7,2,25,2z M25,46.6C13.1,46.6,3.4,36.9,3.4,25
					S13.1,3.4,25,3.4S46.6,13.1,46.6,25S36.9,46.6,25,46.6z"/>
			</g>
		</g>
		<g id="mail">
			<g>
				<path class="st0" d="M35.1,17.1H14.9c-0.8,0-1.4,0.6-1.4,1.4v12.9c0,0.8,0.6,1.4,1.4,1.4h20.1c0.8,0,1.4-0.6,1.4-1.4V18.5
					C36.5,17.7,35.9,17.1,35.1,17.1z M33.8,18.5L25,27.2l-8.7-8.6H33.8z M14.9,31.5V19.2l6.9,6.9l-5.4,5.3H14.9z M18.5,31.5l4.4-4.2
					l1.2,1.1c0.6,0.6,1.4,0.6,2,0l1.1-1.1l4.4,4.2L18.5,31.5L18.5,31.5z M35.1,31.5h-1.4l-5.4-5.3l6.8-6.8L35.1,31.5L35.1,31.5z"/>
			</g>
		</g>
	</g>
</g>
</svg>
