<?xml version="1.0" encoding="UTF-8"?><svg id="Layer_2" xmlns="http://www.w3.org/2000/svg" viewBox="0 0 944.19 168.32"><defs><style>.cls-1{fill:#2e2f65;stroke:#2e2f65;stroke-miterlimit:10;stroke-width:.75px;}.cls-2{fill:#a63c9f;}</style></defs><g id="Layer_2-2"><path class="cls-2" d="m.75,115.89c3.82-15.97,28.71-21.79,47.95-27.82,3.11-.94,5.73-3.69,7.86-8.24,6.4-13.53,8.39-33.46,11.84-47.66.77-4.3,3.24-7.56,3.8-3.81.02,11.19-5.83,30.96-9.07,42.56-2.07,7.06-3.46,11.59-4.15,13.6-.37.95-.02,1.11.95.89,8.63-1.57,25.74-4.71,34.64-4.96.17,0,.66-1.17,1.47-3.5,5.69-13.32,12.04-43.44,21.85-52.57,1.73.3.41,2.39.09,3.28-3.99,9.57-11.42,28.1-15.64,39.2-2.57,7.69-4.98,11.71-3.71,13.24,1.92-.03,4.34-.56,6.18,0,2.21.74.34,4.36-1.6,3.1h-.09v-.09c-2.83-.19-5.82-.9-6.95,2.52-7.11,18.09-14.61,53.32-14.35,58.18-.09,1.46.5,2.02.61,3.28-.36,3.43-3.92,1.43-3.37-1.24.73-15.63,8.18-41.62,13.44-57.16,1.09-3.43,1.64-5.23,1.64-5.4-3.51-.54-7.32.3-14.99,1.02-9.34,2.12-21.34-.27-24.06,8.81-8.44,16.57-21.56,33.2-38.79,34.02-6.75.31-15.33-4.73-15.55-11.25Zm51.57-26.84c-9.76,1.56-62.8,16.65-45.44,32.64,20,10.71,40.75-17.26,45.44-32.64Z"/><path class="cls-2" d="m81.04,149.67c-.53,0-1.08-.21-1.57-.62-.94-.78-1.39-2.06-1.16-3.29.71-15.01,7.7-40.25,13.48-57.32.8-2.5,1.21-3.82,1.41-4.52-2.17-.19-4.61.09-8.1.49-1.68.19-3.61.42-5.88.63-2.56.59-5.41.83-8.17,1.07-6.9.59-13.42,1.15-15.24,7.21l-.05.13c-7.75,15.22-20.88,33.55-39.42,34.43-4.34.19-9.31-1.66-12.64-4.74C1.37,121,.09,118.5,0,115.91v-.1s.02-.1.02-.1c3.52-14.72,24.11-20.96,42.28-26.47,2.1-.64,4.16-1.26,6.17-1.89,2.89-.88,5.38-3.51,7.41-7.84,4.37-9.24,6.62-21.28,8.81-32.93.98-5.22,1.9-10.15,2.98-14.59.52-2.91,1.96-6.03,3.57-6.03h.02c.61,0,1.4.41,1.68,2.28v.11c.03,10.4-4.96,28.11-8.26,39.83l-.82,2.94c-2.04,6.93-3.43,11.49-4.13,13.56.01,0,.03,0,.04-.01l.65-.12c8.75-1.59,24.94-4.53,33.77-4.85.16-.32.49-1.11,1.14-3.01,1.8-4.22,3.68-10.14,5.66-16.41,4.47-14.1,9.53-30.07,16.39-36.46l.27-.25.37.06c.77.13,1.13.54,1.3.86.48.9-.04,2.07-.42,2.92-.08.19-.16.36-.21.5-4.02,9.66-11.42,28.12-15.64,39.21-.81,2.41-1.62,4.52-2.28,6.22-1.07,2.77-1.94,5.03-1.7,5.99.43-.02.88-.06,1.34-.1,1.57-.14,3.19-.28,4.61.15.87.29,1.41.94,1.51,1.79.12,1.01-.44,2.15-1.33,2.7-.69.43-1.49.46-2.2.08h-.55l-.02-.14c-.11,0-.22-.02-.33-.03-2.73-.24-4.45-.27-5.23,2.09-7.18,18.26-14.56,53.29-14.31,57.91-.04.79.1,1.23.26,1.75.13.42.29.89.34,1.5v.07s0,.07,0,.07c-.17,1.61-.96,2.17-1.42,2.35-.23.09-.47.14-.71.14Zm10.67-67.3c.89,0,1.72.05,2.54.18l.64.1v.64c0,.19,0,.38-1.68,5.63-5.76,17.01-12.72,42.13-13.41,56.97v.12c-.19.86.22,1.56.62,1.89.27.22.57.32.76.24.24-.1.42-.49.49-1.05-.04-.41-.15-.75-.27-1.1-.19-.58-.4-1.23-.33-2.22-.25-4.62,7.18-40.05,14.4-58.41,1.18-3.56,4.28-3.29,6.77-3.07.31.03.62.05.93.08l.7.05v.28c.19.05.36.02.54-.1.4-.25.68-.81.63-1.25-.03-.27-.18-.43-.48-.54-1.12-.34-2.6-.21-4.02-.09-.67.06-1.3.11-1.9.12h-.36s-.23-.27-.23-.27c-1.14-1.39-.27-3.66,1.32-7.77.68-1.77,1.46-3.78,2.26-6.19,4.23-11.13,11.64-29.61,15.65-39.25.05-.13.14-.34.24-.57.35-.78.52-1.28.5-1.51-6.39,6.37-11.28,21.8-15.6,35.45-2,6.31-3.89,12.27-5.7,16.5-1.31,3.78-1.54,3.96-2.16,3.96-8.61.25-25.06,3.23-33.89,4.84l-.62.11c-.37.09-1.22.28-1.72-.29-.48-.56-.18-1.32-.06-1.61.68-1.98,2.07-6.54,4.12-13.53l.82-2.93c3.27-11.62,8.22-29.17,8.22-39.37-.09-.54-.2-.8-.27-.91-.47.31-1.55,2.05-2.05,4.8-1.08,4.44-2,9.35-2.97,14.55-2.2,11.74-4.47,23.88-8.92,33.29-2.21,4.72-5.01,7.63-8.32,8.63-.96.3-1.94.6-2.92.9,2.73-.7,4.9-1.18,6.22-1.39l1.19-.19-.35,1.15c-3.11,10.19-14.22,27.96-28.2,33.73-6.41,2.65-12.57,2.43-18.31-.64l-.15-.11c-3.22-2.96-4.35-6.12-3.36-9.38,2.18-7.21,14.71-13.6,26.76-18.07-13.49,4.65-25.69,10.69-28.27,21.17.13,2.7,1.81,4.79,3.21,6.08,3.01,2.78,7.65,4.53,11.55,4.34,17.8-.84,30.55-18.69,38.13-33.55,2.13-6.98,9.45-7.61,16.53-8.21,2.71-.23,5.51-.47,8.06-1.05,2.35-.23,4.26-.45,5.94-.64,2.77-.32,4.9-.57,6.79-.57ZM7.32,121.07c5.3,2.81,11,2.99,16.95.54,13.01-5.37,23.48-21.54,26.95-31.6-9.48,1.9-43.29,11.73-46.78,23.28-.81,2.68.13,5.22,2.87,7.78Zm87.22-41.37s-.02,0-.04,0c.01,0,.02,0,.04,0h0Z"/><path class="cls-2" d="m162.64,106.14c.16,0,.25.04.25.12s-.72,1.01-2.16,2.78c-1.44,1.77-3.29,3.75-5.56,5.93-2.27,2.18-4.71,4.09-7.35,5.74-2.64,1.65-5.19,2.51-7.66,2.59-1.89,0-3.36-.56-4.38-1.67-1.03-1.11-1.81-2.51-2.35-4.2-.54-1.69-.93-3.36-1.17-5-.33-1.89-.72-3.48-1.17-4.75-.46-1.28-1.22-1.91-2.29-1.91-1.73,0-4.14,1.75-7.22,5.25-3.09,3.5-6.28,7.31-9.57,11.42-2.72,3.38-5.15,6.3-7.29,8.77-2.14,2.47-3.71,3.71-4.69,3.71-.41,0-.78-.08-1.11-.25-1.07-.99-1.61-2.8-1.61-5.43,0-5.27,1.65-12.66,4.94-22.17,3.29-9.51,7.35-19.14,12.17-28.9s9.67-18.07,14.57-24.95c4.9-6.87,8.91-10.31,12.04-10.31,1.89,0,2.84,1.07,2.84,3.21v.25c0,5.43-3.87,14.55-11.61,27.36-7.74,12.8-15.73,23.78-23.96,32.91-.25.33-.49.62-.74.87-.66.66-1.15,1.21-1.48,1.67-.33.45-.64,1.07-.93,1.85-.29.78-.6,1.91-.93,3.4-1.65,7.9-2.47,12.8-2.47,14.7,0,.33.02.62.06.86.04.25.06.41.06.49v.12c.25,0,.82-.56,1.73-1.67.9-1.11,2.02-2.53,3.33-4.26,2.14-2.88,4.61-6.01,7.41-9.39,2.8-3.38,5.62-6.34,8.46-8.89,2.84-2.55,5.33-3.83,7.47-3.83,1.81,0,3.11.91,3.89,2.72.78,1.81,1.42,3.87,1.91,6.18.49,2.47,1.17,4.67,2.04,6.61.87,1.93,2.33,2.9,4.38,2.9,1.48,0,3.46-1.01,5.93-3.03,2.47-2.02,4.94-4.18,7.41-6.48,1.65-1.48,3.07-2.74,4.26-3.77,1.19-1.03,2.04-1.54,2.53-1.54Zm-22.35-60.27c-1.98,0-4.76,2.82-8.34,8.46-3.58,5.64-7.22,12.15-10.93,19.51-3.71,7.37-6.88,14.1-9.51,20.19-2.64,6.09-3.95,9.55-3.95,10.38,0,.08.04.12.12.12.25,0,2.1-2.43,5.56-7.29,3.46-4.86,7.35-10.64,11.67-17.35,4.32-6.71,8.15-13.15,11.49-19.33,3.33-6.17,5-10.54,5-13.09,0-.58-.12-.99-.37-1.23-.25-.25-.49-.37-.74-.37Z"/><path class="cls-2" d="m100.03,135.67c-.52,0-1.01-.11-1.45-.33l-.18-.12c-1.24-1.15-1.85-3.11-1.85-5.99,0-5.32,1.68-12.86,4.98-22.41,3.29-9.49,7.39-19.24,12.2-28.99,4.81-9.75,9.74-18.18,14.64-25.05,5.09-7.15,9.23-10.63,12.65-10.63,2.31,0,3.59,1.41,3.59,3.96v.25c0,5.62-3.83,14.7-11.72,27.74-7.73,12.78-15.82,23.9-24.04,33.03-.24.32-.5.63-.77.89-.62.62-1.1,1.15-1.4,1.58-.29.39-.57.96-.83,1.67-.28.75-.58,1.85-.9,3.3-1.62,7.75-2.44,12.62-2.45,14.5.15-.17.32-.37.52-.62.9-1.1,2.01-2.53,3.32-4.24,2.13-2.87,4.63-6.03,7.43-9.41,2.81-3.39,5.68-6.41,8.54-8.97,3.01-2.71,5.62-4.02,7.97-4.02,2.1,0,3.68,1.1,4.58,3.17.8,1.85,1.46,3.98,1.96,6.32.48,2.42,1.15,4.59,1.99,6.46.74,1.65,1.95,2.46,3.7,2.46,1.3,0,3.13-.96,5.45-2.86,2.45-2,4.93-4.17,7.37-6.45,1.66-1.5,3.08-2.76,4.28-3.79,1.77-1.53,2.54-1.72,3.02-1.72.69,0,1,.45,1,.87,0,.34,0,.38-2.33,3.25-1.45,1.78-3.34,3.8-5.62,5.99-2.29,2.21-4.81,4.17-7.47,5.84-2.74,1.71-5.44,2.62-8.03,2.71h0c-2.13,0-3.79-.64-4.96-1.91-1.1-1.19-1.94-2.69-2.51-4.48-.54-1.7-.95-3.43-1.2-5.12-.32-1.83-.7-3.38-1.14-4.62-.45-1.25-1.08-1.41-1.58-1.41-1.03,0-3.02.87-6.66,5-3.1,3.51-6.31,7.35-9.55,11.4-2.71,3.37-5.17,6.33-7.31,8.79-2.38,2.74-4,3.96-5.26,3.96Zm-.68-1.63c.2.08.43.13.68.13.34,0,1.43-.34,4.13-3.45,2.12-2.45,4.57-5.39,7.27-8.75,3.25-4.07,6.48-7.92,9.59-11.45,3.26-3.7,5.81-5.5,7.79-5.5.97,0,2.28.42,2.99,2.41.46,1.31.87,2.95,1.2,4.88.25,1.63.63,3.28,1.15,4.9.5,1.58,1.23,2.89,2.18,3.92.89.96,2.14,1.43,3.83,1.43,2.3-.08,4.75-.91,7.26-2.48,2.57-1.61,5-3.51,7.22-5.65,2.12-2.05,3.9-3.93,5.28-5.6-1.04.91-2.24,1.97-3.58,3.18-2.46,2.29-4.96,4.48-7.44,6.51-2.63,2.15-4.73,3.2-6.4,3.2-2.34,0-4.09-1.16-5.07-3.35-.88-1.97-1.58-4.25-2.09-6.77-.48-2.23-1.11-4.27-1.87-6.03-.67-1.54-1.69-2.26-3.2-2.26-1.94,0-4.29,1.22-6.97,3.64-2.8,2.52-5.62,5.48-8.38,8.81-2.78,3.36-5.27,6.5-7.39,9.36-1.32,1.73-2.45,3.17-3.35,4.29-1.34,1.64-1.83,1.94-2.31,1.94h-.75v-.87c0-.06-.02-.19-.05-.37-.05-.3-.07-.63-.07-.99,0-1.97.81-6.83,2.49-14.85.34-1.54.65-2.68.96-3.5.32-.86.65-1.53,1.03-2.04.35-.48.88-1.08,1.56-1.76.22-.21.44-.47.67-.79,8.2-9.11,16.24-20.15,23.92-32.85,7.63-12.62,11.5-21.7,11.5-26.97v-.25c0-2.17-1.06-2.46-2.09-2.46-2.86,0-6.7,3.36-11.43,10-4.85,6.81-9.74,15.17-14.51,24.85-4.78,9.69-8.86,19.39-12.13,28.81-3.25,9.39-4.9,16.77-4.9,21.92,0,2.33.43,3.95,1.28,4.81Zm63.3-27.15h0v-.59s0,.59,0,.59Zm0-.7v-.05.05Zm-54.96-.9c-.5,0-.88-.38-.88-.87,0-.65.46-2.45,4.01-10.67,2.63-6.08,5.84-12.89,9.53-20.23,3.7-7.36,7.39-13.95,10.97-19.58,3.82-6.01,6.67-8.81,8.97-8.81.45,0,.88.2,1.27.59.39.39.59.98.59,1.76,0,2.7-1.67,7.1-5.09,13.45-3.33,6.17-7.21,12.69-11.52,19.38-4.3,6.68-8.24,12.53-11.69,17.38-5.41,7.6-5.65,7.6-6.17,7.6Zm32.6-58.67c-.95,0-3.22,1.06-7.7,8.11-3.55,5.59-7.21,12.13-10.89,19.45-3.68,7.32-6.87,14.1-9.49,20.15-1.47,3.4-2.39,5.66-2.96,7.16.78-1.05,1.87-2.54,3.39-4.68,3.44-4.83,7.36-10.66,11.65-17.32,4.29-6.65,8.14-13.14,11.46-19.28,3.26-6.04,4.91-10.32,4.91-12.74,0-.41-.08-.63-.15-.7-.12-.12-.19-.15-.21-.15Z"/><path class="cls-2" d="m94.36,167.53c-22.76.9-58.81-12.34-65.28-34.22,48.87,59.53,142.08,32.35,145.01-49.17-1.89-104.78-157.4-104.76-159.28.02-.09.34,1.6,10.68-1.07,11.63-1.01.12-1.92.43-2.05-.57C4.76,45.81,44.42.37,94.36.75c109.57,1.97,109.59,164.82,0,166.78Z"/><path class="cls-2" d="m92.19,168.32c-22.6,0-57.37-12.97-63.82-34.8l-1.05-3.55,2.35,2.86c22.69,27.64,58.05,38.51,90.08,27.69,31.75-10.72,52.29-40,53.6-76.4-.97-53.44-41.57-77.8-78.88-77.8h0c-37.32,0-77.93,24.37-78.89,77.86v.09c0,.15.04.43.08.82.55,5.16.78,10.55-1.65,11.41l-.16.04c-.14.02-.27.04-.4.06-.67.1-1.37.21-1.92-.21-.32-.24-.51-.6-.57-1.06-3.35-23.8,4.03-48.06,20.23-66.56C47.22,10.46,69.99,0,93.75,0c.21,0,.41,0,.62,0,56.98,1.02,82.93,44.34,82.93,84.15,0,39.8-25.95,83.1-82.91,84.13-.72.03-1.45.04-2.19.04Zm-60.83-31.22c9.37,19.41,42.33,30.51,62.97,29.68h.02c55.96-1,81.45-43.53,81.45-82.63,0-39.1-25.49-81.65-81.45-82.65-.2,0-.41,0-.61,0-23.32,0-45.67,10.27-61.42,28.24-15.92,18.17-23.16,41.99-19.88,65.37.01.08.02.11.02.11.05-.01.47-.08.75-.12.11-.02.22-.03.34-.05.51-.26,1.46-1.77.6-9.82-.08-.73-.1-.97-.09-1.14C15.08,29.63,56.44,4.82,94.46,4.81h0c38.03,0,79.4,24.82,80.38,79.31-1.33,37.08-22.26,66.88-54.62,77.81-31.32,10.58-65.74.82-88.87-24.84Z"/><path class="cls-1" d="m214.59,124.08V50.19h15.16v28.83h30.32v-28.83h15.16v73.88h-15.16v-31.16h-30.32v31.16h-15.16Z"/><path class="cls-1" d="m326.73,125.88c-7.07,0-13.29-1.61-18.66-4.82-5.37-3.21-9.56-7.74-12.56-13.57-3-5.83-4.5-12.6-4.5-20.3s1.5-14.57,4.5-20.4c3-5.83,7.19-10.35,12.56-13.57,5.37-3.21,11.59-4.82,18.66-4.82s13.39,1.61,18.76,4.82c5.37,3.22,9.56,7.74,12.56,13.57,3,5.83,4.51,12.63,4.51,20.4s-1.52,14.56-4.56,20.35c-3.04,5.79-7.24,10.3-12.61,13.51-5.37,3.21-11.59,4.82-18.66,4.82Zm0-14.52c4.24,0,7.88-.99,10.92-2.97,3.04-1.98,5.41-4.79,7.1-8.43,1.7-3.64,2.54-7.9,2.54-12.77s-.85-9.24-2.54-12.88c-1.7-3.64-4.06-6.45-7.1-8.43-3.04-1.98-6.68-2.97-10.92-2.97s-7.81.97-10.92,2.92c-3.11,1.94-5.5,4.72-7.16,8.32-1.66,3.6-2.49,7.95-2.49,13.04s.83,9.33,2.49,12.93c1.66,3.6,4.04,6.38,7.16,8.32,3.11,1.94,6.75,2.92,10.92,2.92Z"/><path class="cls-1" d="m378.35,124.08V50.19h15.16v60.31h30.85v13.57h-46Z"/><path class="cls-1" d="m437.4,124.08V50.19h15.16v60.31h30.85v13.57h-46Z"/><path class="cls-1" d="m496.44,124.08V50.19h15.16v73.88h-15.16Z"/><path class="cls-1" d="m563.11,124.08V50.19h15.16v28.83h30.32v-28.83h15.16v73.88h-15.16v-31.16h-30.32v31.16h-15.16Z"/><path class="cls-1" d="m636.25,124.08l30.21-73.88h11.24l30.21,73.88h-16.54l-19.19-51.41-19.4,51.41h-16.54Zm20.78-13.46l4.77-13.57h20.67l4.88,13.57h-30.32Z"/><path class="cls-1" d="m720.41,124.08V50.19h22.15l18.23,52.05h-2.76l18.23-52.05h22.15v73.88h-15.16v-56.07l1.38.21-17.81,49.29h-14.73l-17.91-49.29,1.38-.21v56.07h-15.16Z"/><path class="cls-1" d="m817.08,124.08V50.19h26.82c7.42,0,13.25,1.66,17.49,4.98,4.24,3.32,6.36,7.88,6.36,13.67,0,3.39-.67,6.38-2.01,8.96-1.34,2.58-3.22,4.65-5.62,6.2,3.96,1.63,6.89,3.96,8.8,7,1.91,3.04,2.86,6.75,2.86,11.13,0,6.86-2.16,12.23-6.47,16.11-4.31,3.89-10.25,5.83-17.81,5.83h-30.42Zm15.16-44.84h11.87c2.68,0,4.77-.71,6.25-2.12,1.48-1.41,2.23-3.36,2.23-5.83,0-2.26-.76-4.03-2.28-5.3-1.52-1.27-3.66-1.91-6.41-1.91h-11.66v15.16Zm0,30.95h13.99c6.92,0,10.39-2.9,10.39-8.69,0-2.76-.87-4.89-2.6-6.41-1.73-1.52-4.19-2.28-7.37-2.28h-14.42v17.38Z"/><path class="cls-1" d="m902.73,124.08v-29.04l-25.97-44.84h17.38l15.79,29.79,16.32-29.79h17.28l-25.65,44.84v29.04h-15.16Z"/></g></svg>