<?xml version="1.0" encoding="UTF-8"?><svg id="Layer_2" xmlns="http://www.w3.org/2000/svg" viewBox="0 0 101.82 96.66"><defs><style>.cls-1{fill:#a63c9f;}</style></defs><g id="Layer_1-2"><path class="cls-1" d="m.43,66.55c2.19-9.17,16.49-12.51,27.53-15.97,1.79-.54,3.29-2.12,4.51-4.73,3.67-7.77,4.82-19.22,6.8-27.37.44-2.47,1.86-4.34,2.18-2.19.01,6.43-3.35,17.78-5.21,24.44-1.19,4.05-1.98,6.66-2.38,7.81-.21.54,0,.64.55.51,4.95-.9,14.78-2.7,19.89-2.85.1,0,.38-.67.84-2.01,3.27-7.65,6.92-24.94,12.55-30.19.99.17.23,1.37.05,1.88-2.29,5.5-6.56,16.14-8.98,22.51-1.48,4.42-2.86,6.72-2.13,7.6,1.1-.02,2.49-.32,3.55,0,1.27.43.19,2.5-.92,1.78h-.05v-.05c-1.63-.11-3.34-.52-3.99,1.45-4.09,10.39-8.39,30.62-8.24,33.41-.05.84.28,1.16.35,1.88-.21,1.97-2.25.82-1.93-.71.42-8.97,4.7-23.9,7.72-32.83.63-1.97.94-3,.94-3.1-2.02-.31-4.2.17-8.61.59-5.36,1.22-12.25-.16-13.82,5.06-4.84,9.52-12.38,19.07-22.28,19.53-3.88.18-8.8-2.72-8.93-6.46Zm29.62-15.41c-5.6.89-36.06,9.56-26.1,18.75,11.48,6.15,23.4-9.91,26.1-18.75Z"/><path class="cls-1" d="m46.54,85.95c-.3,0-.62-.12-.9-.35-.54-.45-.8-1.18-.67-1.89.41-8.62,4.42-23.11,7.74-32.91.46-1.43.69-2.2.81-2.6-1.24-.11-2.65.05-4.65.28-.97.11-2.07.24-3.37.36-1.47.34-3.11.48-4.69.61-3.96.34-7.71.66-8.75,4.14l-.03.07c-4.45,8.74-11.99,19.27-22.64,19.77-2.49.11-5.34-.95-7.26-2.72C.78,69.49.05,68.05,0,66.57v-.06s.01-.06.01-.06c2.02-8.46,13.85-12.04,24.28-15.2,1.2-.36,2.39-.72,3.54-1.09,1.66-.5,3.09-2.02,4.25-4.5,2.51-5.31,3.8-12.22,5.06-18.91.56-3,1.09-5.83,1.71-8.38.3-1.67,1.12-3.46,2.05-3.46h.01c.35,0,.8.24.96,1.31v.06c.02,5.97-2.85,16.14-4.75,22.87l-.47,1.69c-1.17,3.98-1.97,6.6-2.37,7.79,0,0,.02,0,.03,0l.37-.07c5.03-.91,14.32-2.6,19.4-2.78.09-.19.28-.64.66-1.73,1.03-2.42,2.11-5.82,3.25-9.43,2.56-8.09,5.47-17.27,9.41-20.94l.16-.15.21.04c.44.08.65.31.75.49.28.52-.02,1.19-.24,1.67-.05.11-.09.21-.12.29-2.31,5.55-6.56,16.15-8.98,22.52-.46,1.39-.93,2.6-1.31,3.57-.61,1.59-1.11,2.89-.98,3.44.25-.01.51-.04.77-.06.9-.08,1.83-.16,2.65.09.5.17.81.54.87,1.03.07.58-.25,1.23-.76,1.55-.4.25-.85.26-1.26.05h-.31v-.08c-.07,0-.14-.01-.2-.02-1.57-.14-2.55-.15-3,1.2-4.12,10.48-8.36,30.6-8.22,33.26-.03.45.06.71.15,1.01.08.24.16.51.19.86v.04s0,.04,0,.04c-.1.93-.55,1.25-.82,1.35-.13.05-.27.08-.41.08Zm6.13-38.65c.51,0,.99.03,1.46.1l.37.06v.37c0,.11,0,.22-.96,3.23-3.31,9.77-7.3,24.19-7.7,32.72v.07c-.11.49.13.89.36,1.09.16.13.33.18.43.14.14-.05.24-.28.28-.6-.03-.24-.09-.43-.15-.63-.11-.33-.23-.71-.19-1.27-.14-2.65,4.12-23,8.27-33.54.68-2.05,2.46-1.89,3.89-1.77.18.02.36.03.54.04l.4.03v.16c.11.03.21.01.31-.05.23-.14.39-.46.36-.72-.02-.15-.1-.25-.28-.31-.64-.2-1.49-.12-2.31-.05-.38.03-.74.07-1.09.07h-.21s-.13-.16-.13-.16c-.65-.8-.15-2.1.76-4.46.39-1.02.84-2.17,1.3-3.55,2.43-6.39,6.69-17.01,8.99-22.54.03-.08.08-.2.14-.33.2-.45.3-.74.28-.87-3.67,3.66-6.48,12.52-8.96,20.36-1.15,3.62-2.23,7.04-3.27,9.48-.75,2.17-.89,2.27-1.24,2.27-4.95.14-14.39,1.86-19.46,2.78l-.35.06c-.21.05-.7.16-.99-.17-.27-.32-.1-.76-.04-.92.39-1.14,1.19-3.76,2.37-7.77l.47-1.68c1.88-6.67,4.72-16.75,4.72-22.61-.05-.31-.11-.46-.15-.52-.27.18-.89,1.18-1.18,2.75-.62,2.55-1.15,5.37-1.71,8.36-1.26,6.74-2.57,13.71-5.12,19.12-1.27,2.71-2.88,4.38-4.78,4.96-.55.17-1.11.35-1.68.52,1.57-.4,2.82-.68,3.57-.8l.68-.11-.2.66c-1.79,5.85-8.17,16.06-16.2,19.37-3.68,1.52-7.22,1.4-10.52-.37l-.09-.06c-1.85-1.7-2.5-3.51-1.93-5.39,1.25-4.14,8.45-7.81,15.37-10.38-7.75,2.67-14.75,6.14-16.23,12.16.07,1.55,1.04,2.75,1.84,3.49,1.73,1.6,4.39,2.6,6.64,2.49,10.22-.48,17.55-10.74,21.89-19.27,1.22-4.01,5.43-4.37,9.49-4.72,1.56-.13,3.17-.27,4.63-.6,1.35-.13,2.45-.26,3.41-.37,1.59-.18,2.81-.33,3.9-.33ZM4.21,69.53c3.04,1.61,6.32,1.72,9.73.31,7.47-3.08,13.48-12.37,15.48-18.15-5.45,1.09-24.86,6.74-26.86,13.37-.46,1.54.08,3,1.65,4.47Zm50.09-23.76s-.01,0-.02,0c0,0,.01,0,.02,0h0Z"/><path class="cls-1" d="m93.4,60.96c.09,0,.14.02.14.07s-.42.58-1.24,1.6c-.83,1.02-1.89,2.15-3.19,3.4-1.3,1.25-2.71,2.35-4.22,3.3-1.51.95-2.98,1.44-4.4,1.49-1.09,0-1.93-.32-2.52-.96-.59-.64-1.04-1.44-1.35-2.41-.31-.97-.53-1.93-.67-2.87-.19-1.09-.41-2-.67-2.73-.26-.73-.7-1.1-1.31-1.1-.99,0-2.38,1-4.15,3.01-1.77,2.01-3.61,4.2-5.5,6.56-1.56,1.94-2.96,3.62-4.18,5.04-1.23,1.42-2.13,2.13-2.7,2.13-.24,0-.45-.05-.64-.14-.61-.57-.92-1.61-.92-3.12,0-3.03.95-7.27,2.84-12.73,1.89-5.46,4.22-10.99,6.99-16.6,2.77-5.6,5.56-10.38,8.37-14.33,2.81-3.95,5.12-5.92,6.91-5.92,1.09,0,1.63.62,1.63,1.84v.14c0,3.12-2.22,8.36-6.67,15.71-4.45,7.35-9.03,13.65-13.76,18.9-.14.19-.28.35-.43.5-.38.38-.66.7-.85.96-.19.26-.37.61-.53,1.06-.17.45-.34,1.1-.53,1.95-.95,4.54-1.42,7.35-1.42,8.44,0,.19.01.35.04.5.02.14.04.24.04.28v.07c.14,0,.47-.32.99-.96.52-.64,1.16-1.45,1.91-2.45,1.23-1.66,2.65-3.45,4.26-5.39,1.61-1.94,3.23-3.64,4.86-5.11,1.63-1.46,3.06-2.2,4.29-2.2,1.04,0,1.78.52,2.23,1.56.45,1.04.82,2.22,1.1,3.55.28,1.42.67,2.68,1.17,3.79.5,1.11,1.34,1.67,2.52,1.67.85,0,1.99-.58,3.4-1.74,1.42-1.16,2.84-2.4,4.26-3.72.95-.85,1.76-1.57,2.45-2.16.68-.59,1.17-.89,1.45-.89Zm-12.84-34.61c-1.14,0-2.73,1.62-4.79,4.86-2.06,3.24-4.15,6.98-6.28,11.21-2.13,4.23-3.95,8.1-5.46,11.6-1.51,3.5-2.27,5.49-2.27,5.96,0,.05.02.07.07.07.14,0,1.21-1.39,3.19-4.18,1.99-2.79,4.22-6.11,6.7-9.97,2.48-3.85,4.68-7.55,6.6-11.1,1.91-3.55,2.87-6.05,2.87-7.52,0-.33-.07-.57-.21-.71-.14-.14-.28-.21-.43-.21Z"/><path class="cls-1" d="m57.44,77.91c-.3,0-.58-.06-.83-.19l-.1-.07c-.71-.66-1.06-1.78-1.06-3.44,0-3.06.96-7.39,2.86-12.87,1.89-5.45,4.24-11.05,7.01-16.65,2.76-5.6,5.59-10.44,8.4-14.39,2.93-4.11,5.3-6.1,7.27-6.1,1.33,0,2.06.81,2.06,2.27v.14c0,3.23-2.2,8.44-6.73,15.93-4.44,7.34-9.08,13.72-13.81,18.97-.14.18-.29.36-.44.51-.36.36-.63.66-.81.9-.17.23-.33.55-.48.96-.16.43-.33,1.07-.52,1.89-.93,4.45-1.4,7.25-1.41,8.32.09-.1.18-.21.3-.36.52-.63,1.16-1.45,1.91-2.44,1.22-1.65,2.66-3.46,4.27-5.4,1.61-1.95,3.26-3.68,4.9-5.15,1.73-1.55,3.23-2.31,4.58-2.31,1.2,0,2.11.63,2.63,1.82.46,1.06.84,2.28,1.13,3.63.28,1.39.66,2.63,1.14,3.71.43.95,1.12,1.41,2.12,1.41.74,0,1.8-.55,3.13-1.64,1.41-1.15,2.83-2.4,4.23-3.7.95-.86,1.77-1.58,2.46-2.18,1.02-.88,1.46-.99,1.73-.99.39,0,.57.26.57.5,0,.2,0,.22-1.34,1.87-.83,1.02-1.92,2.18-3.23,3.44-1.32,1.27-2.76,2.4-4.29,3.35-1.57.98-3.12,1.5-4.61,1.55h0c-1.22,0-2.17-.37-2.85-1.1-.63-.68-1.12-1.55-1.44-2.57-.31-.98-.54-1.97-.69-2.94-.18-1.05-.4-1.94-.65-2.65-.26-.72-.62-.81-.91-.81-.59,0-1.74.5-3.83,2.87-1.78,2.02-3.62,4.22-5.48,6.54-1.56,1.94-2.97,3.63-4.2,5.05-1.37,1.57-2.3,2.28-3.02,2.28Zm-.39-.93c.12.05.25.07.39.07.2,0,.82-.19,2.37-1.98,1.22-1.41,2.62-3.1,4.17-5.02,1.87-2.34,3.72-4.55,5.51-6.58,1.87-2.13,3.34-3.16,4.47-3.16.56,0,1.31.24,1.72,1.39.27.75.5,1.7.69,2.8.14.94.36,1.88.66,2.82.29.9.71,1.66,1.25,2.25.51.55,1.23.82,2.2.82,1.32-.04,2.73-.52,4.17-1.42,1.48-.92,2.87-2.02,4.15-3.24,1.22-1.18,2.24-2.26,3.03-3.22-.6.52-1.28,1.13-2.06,1.82-1.41,1.32-2.85,2.57-4.27,3.74-1.51,1.23-2.72,1.84-3.68,1.84-1.34,0-2.35-.66-2.91-1.92-.51-1.13-.91-2.44-1.2-3.89-.28-1.28-.64-2.45-1.07-3.46-.38-.89-.97-1.3-1.84-1.3-1.11,0-2.46.7-4,2.09-1.61,1.44-3.23,3.15-4.81,5.06-1.6,1.93-3.03,3.74-4.24,5.37-.76.99-1.4,1.82-1.93,2.46-.77.94-1.05,1.12-1.33,1.12h-.43v-.5s-.01-.11-.03-.21c-.03-.17-.04-.36-.04-.57,0-1.13.47-3.92,1.43-8.53.2-.88.38-1.54.55-2.01.18-.49.37-.88.59-1.17.2-.28.5-.62.89-1.01.12-.12.25-.27.39-.45,4.71-5.23,9.32-11.57,13.73-18.86,4.38-7.25,6.6-12.46,6.6-15.49v-.14c0-1.25-.61-1.41-1.2-1.41-1.64,0-3.85,1.93-6.56,5.74-2.79,3.91-5.59,8.71-8.33,14.27-2.75,5.57-5.09,11.13-6.97,16.55-1.87,5.39-2.81,9.63-2.81,12.59,0,1.34.25,2.27.74,2.76Zm36.35-15.59h0v-.34s0,.34,0,.34Zm0-.4v-.03.03Zm-31.56-.52c-.29,0-.5-.22-.5-.5,0-.37.26-1.41,2.31-6.13,1.51-3.49,3.35-7.4,5.47-11.62,2.13-4.23,4.24-8.01,6.3-11.24,2.19-3.45,3.83-5.06,5.15-5.06.26,0,.51.11.73.34.22.22.34.56.34,1.01,0,1.55-.96,4.08-2.92,7.72-1.91,3.54-4.14,7.29-6.61,11.13-2.47,3.84-4.73,7.19-6.71,9.98-3.11,4.37-3.24,4.37-3.54,4.37Zm18.72-33.69c-.55,0-1.85.61-4.42,4.66-2.04,3.21-4.14,6.97-6.26,11.17-2.11,4.2-3.95,8.1-5.45,11.57-.84,1.95-1.37,3.25-1.7,4.11.45-.6,1.08-1.46,1.95-2.69,1.98-2.78,4.23-6.12,6.69-9.95,2.46-3.82,4.68-7.55,6.58-11.07,1.87-3.47,2.82-5.93,2.82-7.31,0-.23-.04-.36-.09-.4-.07-.07-.11-.09-.12-.09Z"/><path class="cls-1" d="m54.19,96.21c-13.07.52-33.78-7.09-37.49-19.65,28.06,34.19,81.59,18.58,83.28-28.23-1.09-60.17-90.39-60.16-91.47.01-.05.19.92,6.13-.61,6.68-.58.07-1.1.25-1.18-.33C2.74,26.31,25.51.21,54.19.43c62.92,1.13,62.93,94.65,0,95.77Z"/><path class="cls-1" d="m52.94,96.66c-12.98,0-32.95-7.45-36.65-19.99l-.6-2.04,1.35,1.64c13.03,15.87,33.33,22.11,51.73,15.9,18.23-6.16,30.03-22.97,30.78-43.88-.55-30.69-23.87-44.68-45.3-44.68h0c-21.43,0-44.75,14-45.3,44.71v.05c0,.08.02.25.05.47.32,2.96.45,6.06-.95,6.56l-.09.02c-.08,0-.15.02-.23.03-.38.06-.78.12-1.1-.12-.18-.14-.29-.34-.33-.61-1.92-13.67,2.31-27.6,11.62-38.22C27.12,6.01,40.2,0,53.84,0c.12,0,.24,0,.36,0,32.72.59,47.63,25.46,47.62,48.32,0,22.86-14.9,47.72-47.62,48.31-.41.02-.83.02-1.26.02Zm-34.93-17.93c5.38,11.14,24.31,17.52,36.16,17.05h0c32.14-.57,46.77-25,46.77-47.45,0-22.46-14.64-46.89-46.77-47.46-.12,0-.23,0-.35,0-13.39,0-26.23,5.9-35.27,16.22-9.14,10.43-13.3,24.12-11.41,37.54,0,.05.01.06.01.06.03,0,.27-.04.43-.07.06,0,.13-.02.19-.03.29-.15.84-1.02.34-5.64-.04-.42-.06-.56-.05-.65C8.66,17.02,32.41,2.77,54.25,2.76h0c21.84,0,45.6,14.25,46.16,45.55-.76,21.3-12.78,38.41-31.37,44.69-17.98,6.07-37.75.47-51.04-14.26Z"/></g></svg>